<svg width="26" height="29" viewBox="0 0 26 29" fill="none" xmlns="http://www.w3.org/2000/svg">
<path d="M13.0465 22.5C12.6174 22.5 12.2616 22.092 12.2616 21.6V18C12.2616 17.508 12.6174 17.1 13.0465 17.1C13.4756 17.1 13.8314 17.508 13.8314 18V21.6C13.8314 22.092 13.4756 22.5 13.0465 22.5Z" fill="white"/>
<path d="M18.907 27.072H7.18605C5.2814 27.072 3.54419 25.392 3.23023 23.244L1.83837 13.68C1.60814 12.192 2.24651 10.284 3.28256 9.33598L10.5349 2.67598C11.9372 1.37998 14.1453 1.39198 15.5581 2.68798L22.8105 9.33598C23.836 10.284 24.464 12.192 24.2546 13.68L22.8628 23.232C22.5488 25.356 20.7698 27.072 18.907 27.072V27.072ZM13.036 3.51598C12.4814 3.51598 11.9267 3.70798 11.5186 4.07998L4.26628 10.752C3.68023 11.292 3.26163 12.54 3.38721 13.392L4.77907 22.944C4.96744 24.204 6.06628 25.272 7.18605 25.272H18.907C20.0267 25.272 21.1256 24.204 21.314 22.932L22.7058 13.38C22.8209 12.54 22.4023 11.268 21.8267 10.74L14.5744 4.09198C14.1558 3.70798 13.5907 3.51598 13.036 3.51598V3.51598Z" fill="white"/>
</svg>
