<svg width="26" height="29" viewBox="0 0 26 29" fill="none" xmlns="http://www.w3.org/2000/svg">
<path d="M16.2326 27.3H9.95348C4.27092 27.3 1.84302 24.516 1.84302 18V10.8C1.84302 4.284 4.27092 1.5 9.95348 1.5H15.186C15.6151 1.5 15.9709 1.908 15.9709 2.4C15.9709 2.892 15.6151 3.3 15.186 3.3H9.95348C5.12906 3.3 3.41279 5.268 3.41279 10.8V18C3.41279 23.532 5.12906 25.5 9.95348 25.5H16.2326C21.057 25.5 22.7733 23.532 22.7733 18V12C22.7733 11.508 23.1291 11.1 23.5581 11.1C23.9872 11.1 24.343 11.508 24.343 12V18C24.343 24.516 21.9151 27.3 16.2326 27.3Z" fill="white"/>
<path d="M23.5581 12.8976H19.3721C15.793 12.8976 14.4012 11.3016 14.4012 7.19762V2.39762C14.4012 2.03762 14.5895 1.70162 14.8825 1.56962C15.1756 1.42562 15.5105 1.50962 15.7407 1.76162L24.1128 11.3616C24.2219 11.4877 24.2961 11.648 24.326 11.8222C24.356 11.9965 24.3403 12.1771 24.2811 12.3412C24.2218 12.5053 24.1216 12.6457 23.9929 12.7447C23.8643 12.8437 23.713 12.8969 23.5581 12.8976V12.8976ZM15.9709 4.56962V7.19762C15.9709 10.2936 16.6721 11.0976 19.3721 11.0976H21.6639L15.9709 4.56962Z" fill="white"/>
</svg>
