<svg width="180" height="30" viewBox="0 0 180 30" fill="none" xmlns="http://www.w3.org/2000/svg">
<path d="M51.4354 23C50.9154 23 50.5154 22.86 50.2354 22.58C49.9554 22.3 49.8154 21.9 49.8154 21.38V10.52C49.8154 10 49.9554 9.6 50.2354 9.32C50.5154 9.04 50.9154 8.9 51.4354 8.9H56.2754C57.2754 8.9 58.1287 9.04667 58.8354 9.34C59.542 9.63333 60.0754 10.0533 60.4354 10.6C60.8087 11.1467 60.9954 11.8 60.9954 12.56C60.9954 13.4 60.7554 14.1133 60.2754 14.7C59.7954 15.2867 59.1354 15.68 58.2954 15.88V15.56C59.2687 15.7333 60.022 16.12 60.5554 16.72C61.102 17.3067 61.3754 18.0733 61.3754 19.02C61.3754 20.2733 60.942 21.2533 60.0754 21.96C59.2087 22.6533 58.0154 23 56.4954 23H51.4354ZM52.7754 20.7H56.0754C56.8754 20.7 57.462 20.5467 57.8354 20.24C58.2087 19.92 58.3954 19.4533 58.3954 18.84C58.3954 18.2267 58.2087 17.7667 57.8354 17.46C57.462 17.1533 56.8754 17 56.0754 17H52.7754V20.7ZM52.7754 14.7H55.7354C56.5087 14.7 57.082 14.5533 57.4554 14.26C57.8287 13.9667 58.0154 13.5267 58.0154 12.94C58.0154 12.3667 57.8287 11.9333 57.4554 11.64C57.082 11.3467 56.5087 11.2 55.7354 11.2H52.7754V14.7ZM68.2463 23.18C67.7396 23.18 67.353 23.04 67.0863 22.76C66.8196 22.48 66.6863 22.0867 66.6863 21.58V11.46H63.1463C62.733 11.46 62.413 11.3467 62.1863 11.12C61.9596 10.8933 61.8463 10.58 61.8463 10.18C61.8463 9.76667 61.9596 9.45333 62.1863 9.24C62.413 9.01333 62.733 8.9 63.1463 8.9H73.3263C73.7396 8.9 74.0596 9.01333 74.2863 9.24C74.513 9.45333 74.6263 9.76667 74.6263 10.18C74.6263 10.58 74.513 10.8933 74.2863 11.12C74.0596 11.3467 73.7396 11.46 73.3263 11.46H69.7863V21.58C69.7863 22.0867 69.653 22.48 69.3863 22.76C69.133 23.04 68.753 23.18 68.2463 23.18ZM81.9032 23.22C80.3165 23.22 78.9698 22.92 77.8632 22.32C76.7698 21.72 75.9365 20.88 75.3632 19.8C74.7898 18.72 74.5032 17.4533 74.5032 16C74.5032 14.88 74.6698 13.8733 75.0032 12.98C75.3498 12.0733 75.8432 11.3067 76.4832 10.68C77.1365 10.04 77.9232 9.54667 78.8432 9.2C79.7765 8.85333 80.8298 8.68 82.0032 8.68C82.7232 8.68 83.4432 8.76 84.1632 8.92C84.8832 9.08 85.5765 9.34667 86.2432 9.72C86.5232 9.88 86.7098 10.0867 86.8032 10.34C86.9098 10.58 86.9365 10.84 86.8832 11.12C86.8432 11.3867 86.7365 11.6267 86.5632 11.84C86.4032 12.04 86.1898 12.1733 85.9232 12.24C85.6698 12.2933 85.3765 12.24 85.0432 12.08C84.6032 11.84 84.1365 11.6667 83.6432 11.56C83.1498 11.44 82.6098 11.38 82.0232 11.38C81.0765 11.38 80.2832 11.56 79.6432 11.92C79.0032 12.2667 78.5232 12.7867 78.2032 13.48C77.8965 14.16 77.7432 15 77.7432 16C77.7432 17.5067 78.1032 18.6467 78.8232 19.42C79.5565 20.1933 80.6365 20.58 82.0632 20.58C82.5432 20.58 83.0365 20.5333 83.5432 20.44C84.0498 20.3467 84.5498 20.2133 85.0432 20.04L84.4632 21.3V17.46H82.6632C82.2632 17.46 81.9565 17.36 81.7432 17.16C81.5298 16.96 81.4232 16.6867 81.4232 16.34C81.4232 15.98 81.5298 15.7067 81.7432 15.52C81.9565 15.32 82.2632 15.22 82.6632 15.22H85.8032C86.2032 15.22 86.5032 15.3267 86.7032 15.54C86.9165 15.7533 87.0232 16.06 87.0232 16.46V21.1C87.0232 21.4467 86.9565 21.74 86.8232 21.98C86.6898 22.22 86.4632 22.3933 86.1432 22.5C85.5432 22.7133 84.8698 22.8867 84.1232 23.02C83.3765 23.1533 82.6365 23.22 81.9032 23.22ZM95.3529 23.18C94.9795 23.18 94.6729 23.0933 94.4329 22.92C94.2062 22.7467 94.0595 22.5133 93.9929 22.22C93.9395 21.9267 93.9995 21.6 94.1729 21.24L99.2929 10.02C99.5062 9.56667 99.7595 9.24 100.053 9.04C100.346 8.82667 100.686 8.72 101.073 8.72C101.46 8.72 101.8 8.82667 102.093 9.04C102.386 9.24 102.633 9.56667 102.833 10.02L107.993 21.24C108.166 21.6 108.226 21.9333 108.173 22.24C108.133 22.5333 108 22.7667 107.773 22.94C107.546 23.1 107.253 23.18 106.893 23.18C106.44 23.18 106.086 23.0733 105.833 22.86C105.593 22.6467 105.38 22.3133 105.193 21.86L103.993 19.08L105.233 19.94H96.8929L98.1329 19.08L96.9529 21.86C96.7529 22.3267 96.5395 22.6667 96.3129 22.88C96.0995 23.08 95.7795 23.18 95.3529 23.18ZM101.033 12.2L98.4729 18.3L97.9329 17.52H104.193L103.653 18.3L101.073 12.2H101.033ZM111.071 23.18C110.578 23.18 110.198 23.0467 109.931 22.78C109.678 22.5133 109.551 22.1333 109.551 21.64V14.54C109.551 14.0467 109.678 13.6733 109.931 13.42C110.198 13.1533 110.565 13.02 111.031 13.02C111.511 13.02 111.878 13.1533 112.131 13.42C112.385 13.6733 112.511 14.0467 112.511 14.54V15.68L112.291 15.02C112.598 14.3667 113.051 13.8667 113.651 13.52C114.265 13.16 114.958 12.98 115.731 12.98C116.518 12.98 117.165 13.1333 117.671 13.44C118.178 13.7333 118.558 14.1867 118.811 14.8C119.065 15.4 119.191 16.1667 119.191 17.1V21.64C119.191 22.1333 119.058 22.5133 118.791 22.78C118.538 23.0467 118.165 23.18 117.671 23.18C117.191 23.18 116.818 23.0467 116.551 22.78C116.298 22.5133 116.171 22.1333 116.171 21.64V17.24C116.171 16.56 116.045 16.0733 115.791 15.78C115.551 15.4733 115.178 15.32 114.671 15.32C114.031 15.32 113.518 15.52 113.131 15.92C112.758 16.32 112.571 16.8533 112.571 17.52V21.64C112.571 22.6667 112.071 23.18 111.071 23.18ZM124.566 23.22C123.846 23.22 123.199 23.08 122.626 22.8C122.053 22.52 121.606 22.14 121.286 21.66C120.966 21.18 120.806 20.64 120.806 20.04C120.806 19.32 120.993 18.7533 121.366 18.34C121.739 17.9133 122.346 17.6133 123.186 17.44C124.026 17.2533 125.139 17.16 126.526 17.16H127.586V18.72H126.546C125.866 18.72 125.313 18.76 124.886 18.84C124.473 18.9067 124.173 19.0267 123.986 19.2C123.813 19.3733 123.726 19.6133 123.726 19.92C123.726 20.2933 123.853 20.6 124.106 20.84C124.373 21.08 124.753 21.2 125.246 21.2C125.633 21.2 125.973 21.1133 126.266 20.94C126.573 20.7533 126.813 20.5067 126.986 20.2C127.159 19.88 127.246 19.52 127.246 19.12V16.82C127.246 16.2333 127.113 15.82 126.846 15.58C126.579 15.3267 126.126 15.2 125.486 15.2C125.126 15.2 124.733 15.2467 124.306 15.34C123.893 15.42 123.433 15.56 122.926 15.76C122.633 15.8933 122.373 15.9267 122.146 15.86C121.919 15.78 121.746 15.6467 121.626 15.46C121.506 15.26 121.446 15.0467 121.446 14.82C121.446 14.58 121.513 14.3533 121.646 14.14C121.779 13.9133 121.999 13.7467 122.306 13.64C122.933 13.3867 123.519 13.2133 124.066 13.12C124.626 13.0267 125.139 12.98 125.606 12.98C126.633 12.98 127.473 13.1333 128.126 13.44C128.793 13.7333 129.293 14.1933 129.626 14.82C129.959 15.4333 130.126 16.2267 130.126 17.2V21.64C130.126 22.1333 130.006 22.5133 129.766 22.78C129.526 23.0467 129.179 23.18 128.726 23.18C128.273 23.18 127.919 23.0467 127.666 22.78C127.426 22.5133 127.306 22.1333 127.306 21.64V20.9L127.446 21.02C127.366 21.4733 127.193 21.8667 126.926 22.2C126.673 22.52 126.346 22.7733 125.946 22.96C125.546 23.1333 125.086 23.22 124.566 23.22ZM126.846 11.76C126.686 11.9733 126.493 12.0933 126.266 12.12C126.053 12.1467 125.846 12.1067 125.646 12C125.446 11.8933 125.299 11.74 125.206 11.54C125.126 11.3267 125.146 11.1 125.266 10.86L126.686 8.04C126.819 7.74667 126.999 7.56 127.226 7.48C127.466 7.4 127.706 7.39333 127.946 7.46C128.199 7.52667 128.413 7.64667 128.586 7.82C128.773 7.98 128.886 8.18 128.926 8.42C128.966 8.66 128.893 8.90667 128.706 9.16L126.846 11.76ZM135.719 23.22C134.532 23.22 133.645 22.8933 133.059 22.24C132.472 21.5733 132.179 20.5867 132.179 19.28V10.26C132.179 9.75333 132.305 9.37333 132.559 9.12C132.825 8.85333 133.205 8.72 133.699 8.72C134.179 8.72 134.545 8.85333 134.799 9.12C135.065 9.37333 135.199 9.75333 135.199 10.26V19.16C135.199 19.7067 135.312 20.1133 135.539 20.38C135.779 20.6333 136.092 20.76 136.479 20.76C136.585 20.76 136.685 20.7533 136.779 20.74C136.872 20.7267 136.972 20.72 137.079 20.72C137.292 20.6933 137.439 20.76 137.519 20.92C137.612 21.0667 137.659 21.3667 137.659 21.82C137.659 22.22 137.579 22.5267 137.419 22.74C137.259 22.94 137.012 23.0733 136.679 23.14C136.545 23.1533 136.392 23.1667 136.219 23.18C136.045 23.2067 135.879 23.22 135.719 23.22ZM140.159 23.16C139.666 23.16 139.286 23.02 139.019 22.74C138.766 22.4467 138.639 22.04 138.639 21.52V14.68C138.639 14.1467 138.766 13.74 139.019 13.46C139.286 13.1667 139.666 13.02 140.159 13.02C140.639 13.02 141.006 13.1667 141.259 13.46C141.526 13.74 141.659 14.1467 141.659 14.68V21.52C141.659 22.04 141.532 22.4467 141.279 22.74C141.026 23.02 140.652 23.16 140.159 23.16ZM140.159 11.38C139.599 11.38 139.166 11.2533 138.859 11C138.566 10.7333 138.419 10.36 138.419 9.88C138.419 9.38667 138.566 9.01333 138.859 8.76C139.166 8.49333 139.599 8.36 140.159 8.36C140.719 8.36 141.146 8.49333 141.439 8.76C141.732 9.01333 141.879 9.38667 141.879 9.88C141.879 10.36 141.732 10.7333 141.439 11C141.146 11.2533 140.719 11.38 140.159 11.38ZM147.551 23.22C146.964 23.22 146.357 23.1667 145.731 23.06C145.117 22.9533 144.557 22.7733 144.051 22.52C143.784 22.3867 143.591 22.22 143.471 22.02C143.364 21.8067 143.317 21.5933 143.331 21.38C143.344 21.1667 143.411 20.9733 143.531 20.8C143.664 20.6267 143.831 20.5133 144.031 20.46C144.244 20.3933 144.477 20.4133 144.731 20.52C145.277 20.7467 145.777 20.9067 146.231 21C146.684 21.0933 147.131 21.14 147.571 21.14C148.144 21.14 148.557 21.0533 148.811 20.88C149.077 20.6933 149.211 20.4533 149.211 20.16C149.211 19.8933 149.124 19.6933 148.951 19.56C148.777 19.4267 148.524 19.3333 148.191 19.28L146.091 18.9C145.264 18.7533 144.624 18.4533 144.171 18C143.731 17.5333 143.511 16.94 143.511 16.22C143.511 15.5533 143.697 14.98 144.071 14.5C144.444 14.0067 144.957 13.6333 145.611 13.38C146.277 13.1133 147.031 12.98 147.871 12.98C148.471 12.98 149.024 13.0333 149.531 13.14C150.037 13.2467 150.524 13.42 150.991 13.66C151.231 13.78 151.397 13.94 151.491 14.14C151.597 14.34 151.631 14.5467 151.591 14.76C151.564 14.9733 151.484 15.1667 151.351 15.34C151.217 15.5133 151.044 15.6267 150.831 15.68C150.631 15.7333 150.397 15.7067 150.131 15.6C149.704 15.4 149.311 15.26 148.951 15.18C148.591 15.0867 148.244 15.04 147.911 15.04C147.311 15.04 146.877 15.14 146.611 15.34C146.344 15.5267 146.211 15.7667 146.211 16.06C146.211 16.2867 146.284 16.48 146.431 16.64C146.591 16.7867 146.831 16.8867 147.151 16.94L149.251 17.32C150.117 17.4667 150.777 17.76 151.231 18.2C151.684 18.6267 151.911 19.2133 151.911 19.96C151.911 20.9733 151.511 21.7733 150.711 22.36C149.924 22.9333 148.871 23.22 147.551 23.22ZM158.534 23.22C157.374 23.22 156.374 23.0133 155.534 22.6C154.708 22.1733 154.068 21.58 153.614 20.82C153.174 20.0467 152.954 19.14 152.954 18.1C152.954 17.0867 153.168 16.2 153.594 15.44C154.021 14.6667 154.614 14.0667 155.374 13.64C156.148 13.2 157.021 12.98 157.994 12.98C158.701 12.98 159.341 13.1 159.914 13.34C160.488 13.5667 160.981 13.9 161.394 14.34C161.808 14.7667 162.121 15.2933 162.334 15.92C162.548 16.5333 162.654 17.22 162.654 17.98C162.654 18.2333 162.574 18.4267 162.414 18.56C162.254 18.68 162.021 18.74 161.714 18.74H155.434V17.18H160.474L160.154 17.46C160.154 16.9133 160.074 16.46 159.914 16.1C159.754 15.7267 159.521 15.4467 159.214 15.26C158.921 15.0733 158.554 14.98 158.114 14.98C157.621 14.98 157.201 15.0933 156.854 15.32C156.508 15.5467 156.241 15.8733 156.054 16.3C155.868 16.7267 155.774 17.24 155.774 17.84V18C155.774 19.0133 156.008 19.76 156.474 20.24C156.954 20.72 157.661 20.96 158.594 20.96C158.914 20.96 159.281 20.92 159.694 20.84C160.108 20.76 160.494 20.6333 160.854 20.46C161.161 20.3133 161.434 20.2667 161.674 20.32C161.914 20.36 162.101 20.4667 162.234 20.64C162.368 20.8133 162.441 21.0133 162.454 21.24C162.481 21.4667 162.434 21.6933 162.314 21.92C162.194 22.1333 161.994 22.3133 161.714 22.46C161.261 22.7133 160.748 22.9 160.174 23.02C159.614 23.1533 159.068 23.22 158.534 23.22ZM167.971 23.22C167.384 23.22 166.777 23.1667 166.151 23.06C165.537 22.9533 164.977 22.7733 164.471 22.52C164.204 22.3867 164.011 22.22 163.891 22.02C163.784 21.8067 163.737 21.5933 163.751 21.38C163.764 21.1667 163.831 20.9733 163.951 20.8C164.084 20.6267 164.251 20.5133 164.451 20.46C164.664 20.3933 164.897 20.4133 165.151 20.52C165.697 20.7467 166.197 20.9067 166.651 21C167.104 21.0933 167.551 21.14 167.991 21.14C168.564 21.14 168.977 21.0533 169.231 20.88C169.497 20.6933 169.631 20.4533 169.631 20.16C169.631 19.8933 169.544 19.6933 169.371 19.56C169.197 19.4267 168.944 19.3333 168.611 19.28L166.511 18.9C165.684 18.7533 165.044 18.4533 164.591 18C164.151 17.5333 163.931 16.94 163.931 16.22C163.931 15.5533 164.117 14.98 164.491 14.5C164.864 14.0067 165.377 13.6333 166.031 13.38C166.697 13.1133 167.451 12.98 168.291 12.98C168.891 12.98 169.444 13.0333 169.951 13.14C170.457 13.2467 170.944 13.42 171.411 13.66C171.651 13.78 171.817 13.94 171.911 14.14C172.017 14.34 172.051 14.5467 172.011 14.76C171.984 14.9733 171.904 15.1667 171.771 15.34C171.637 15.5133 171.464 15.6267 171.251 15.68C171.051 15.7333 170.817 15.7067 170.551 15.6C170.124 15.4 169.731 15.26 169.371 15.18C169.011 15.0867 168.664 15.04 168.331 15.04C167.731 15.04 167.297 15.14 167.031 15.34C166.764 15.5267 166.631 15.7667 166.631 16.06C166.631 16.2867 166.704 16.48 166.851 16.64C167.011 16.7867 167.251 16.8867 167.571 16.94L169.671 17.32C170.537 17.4667 171.197 17.76 171.651 18.2C172.104 18.6267 172.331 19.2133 172.331 19.96C172.331 20.9733 171.931 21.7733 171.131 22.36C170.344 22.9333 169.291 23.22 167.971 23.22Z" fill="white"/>
<path d="M0.255814 0H25.2849V12.8333H13.0892C6.0015 12.8333 0.255814 7.08766 0.255814 0V0Z" fill="#64A9EE"/>
<rect x="4.52907" y="15.75" width="14.402" height="13.7619" rx="6.88095" fill="#2775E0"/>
<path d="M23 0V0C30.8738 0 37.2906 6.31874 37.4117 14.1916L37.6512 29.75V29.75C29.4043 29.1918 23 22.3394 23 14.0736V0Z" fill="#194CA5"/>
</svg>
