<svg width="42" height="42" viewBox="0 0 42 42" fill="none" xmlns="http://www.w3.org/2000/svg">
<g clip-path="url(#clip0_26_5375)">
<path d="M37.5 1.5H4.5C2.84315 1.5 1.5 2.84315 1.5 4.5V37.5C1.5 39.1569 2.84315 40.5 4.5 40.5H37.5C39.1569 40.5 40.5 39.1569 40.5 37.5V4.5C40.5 2.84315 39.1569 1.5 37.5 1.5Z" stroke="white" stroke-width="2" stroke-linecap="round" stroke-linejoin="round"/>
<path d="M9 13.5H24" stroke="white" stroke-width="2" stroke-linecap="round" stroke-linejoin="round"/>
<path d="M28.5 18C30.9853 18 33 15.9853 33 13.5C33 11.0147 30.9853 9 28.5 9C26.0147 9 24 11.0147 24 13.5C24 15.9853 26.0147 18 28.5 18Z" stroke="white" stroke-width="2" stroke-linecap="round" stroke-linejoin="round"/>
<path d="M33 28.5H24" stroke="white" stroke-width="2" stroke-linecap="round" stroke-linejoin="round"/>
<path d="M15 28.5H9" stroke="white" stroke-width="2" stroke-linecap="round" stroke-linejoin="round"/>
<path d="M19.5 33C21.9853 33 24 30.9853 24 28.5C24 26.0147 21.9853 24 19.5 24C17.0147 24 15 26.0147 15 28.5C15 30.9853 17.0147 33 19.5 33Z" stroke="white" stroke-width="2" stroke-linecap="round" stroke-linejoin="round"/>
</g>
<defs>
<clipPath id="clip0_26_5375">
<rect width="42" height="42" fill="white"/>
</clipPath>
</defs>
</svg>
